<svg fill="none" height="54" viewBox="0 0 50 54" width="50" xmlns="http://www.w3.org/2000/svg"><path d="m30.535.866929c-.8683-.249738-1.7589-.414341-2.6592-.491481-.419-.000444-.8219.160702-1.1251.449895-.3031.289197-.4831.684157-.5023 1.102667v21.00999c-4.4602-.1576-8.9256.0766-13.3449.6998 0 0-.0228-20.92537-.0228-21.13694 0-.58913-.6509-1.01877-3.13114-1.627421-.86438-.254361-1.75188-.422265-2.64944-.501246-.41896-.000443-.82195.160703-1.12509.449896-.30314.289191-.48307.684151-.50234 1.102661v23.15175c-.50124.1171-2.86752.6282-4.19224 1.0545-1.32472.4264-1.506993 1.4061-1.064334 2.7439.709557 2.1677 3.098614 4.7488 4.517724 4.1564.35804-.1399.73885-.2408.73885-.2408 0 5.6439.02604 9.6441.02604 9.6441v8.9052c0 .5892.20831 1.0188 2.6885 1.6274 1.01553.2649 2.05437.4306 3.10187.4948.417.0002.8178-.1616 1.1178-.4512.3-.2897.4757-.6846.4901-1.1014v-21.3257c4.389-.9934 8.8524-1.6237 13.3449-1.8846v22.644c0 .5891.2311 1.022 2.7112 1.6274 1.0155.265 2.0544.4307 3.1019.4947.4165-.0006.8165-.1627 1.1158-.4523s.4745-.684.4889-1.1002v-49.41509c.0097-.58913-.6412-1.01877-3.1247-1.630681z" fill="#442359"/><path d="m45.2969 41.5297c-2.8806-.498-5.6602 1.9204-6.2038 5.0515-.5435 3.1312 1.3475 6.0801 4.2313 6.5781s5.6439-1.6437 6.1842-4.7781-1.3377-6.3502-4.2117-6.8515z" fill="#e64600"/></svg>